<?xml version="1.0" encoding="UTF-8" standalone="no"?>
<!DOCTYPE svg PUBLIC "-//W3C//DTD SVG 1.1//EN"
 "http://www.w3.org/Graphics/SVG/1.1/DTD/svg11.dtd">
<!-- Generated by graphviz version 2.40.1 (20161225.0304)
 -->
<!-- Title: G Pages: 1 -->
<svg width="374pt" height="550pt"
 viewBox="0.00 0.00 373.76 550.00" xmlns="http://www.w3.org/2000/svg" xmlns:xlink="http://www.w3.org/1999/xlink">
<g id="graph0" class="graph" transform="scale(1 1) rotate(0) translate(4 546)">
<title>G</title>
<polygon fill="#ffffff" stroke="transparent" points="-4,4 -4,-546 369.7567,-546 369.7567,4 -4,4"/>
<!-- definitions -->
<g id="node1" class="node">
<title>definitions</title>
<ellipse fill="#a02fbc" stroke="#000000" cx="299.6168" cy="-271" rx="35.8171" ry="18"/>
<text text-anchor="middle" x="299.6168" y="-268.5" font-family="Helvetica,sans-Serif" font-size="10.00" fill="#ffffff">definitions</text>
</g>
<!-- src_actions -->
<g id="node2" class="node">
<title>src_actions</title>
<ellipse fill="#a83838" stroke="#000000" cx="259.6168" cy="-90" rx="38.0276" ry="18"/>
<text text-anchor="middle" x="259.6168" y="-87.5" font-family="Helvetica,sans-Serif" font-size="10.00" fill="#ffffff">src.actions</text>
</g>
<!-- definitions&#45;&gt;src_actions -->
<g id="edge1" class="edge">
<title>definitions&#45;&gt;src_actions</title>
<path fill="none" stroke="#000000" d="M325.6168,-216.5C324.4144,-192.3076 330.7818,-185.6652 325.6168,-162"/>
<path fill="none" stroke="#000000" d="M325.6168,-162C321.1321,-141.4516 305.5004,-123.9134 290.5758,-111.292"/>
<polygon fill="#000000" stroke="#000000" points="292.433,-108.2964 282.4324,-104.798 288.0686,-113.7693 292.433,-108.2964"/>
</g>
<!-- src_api -->
<g id="node3" class="node">
<title>src_api</title>
<ellipse fill="#993333" stroke="#000000" cx="259.6168" cy="-162" rx="27.1572" ry="18"/>
<text text-anchor="middle" x="259.6168" y="-159.5" font-family="Helvetica,sans-Serif" font-size="10.00" fill="#ffffff">src.api</text>
</g>
<!-- definitions&#45;&gt;src_api -->
<g id="edge7" class="edge">
<title>definitions&#45;&gt;src_api</title>
<path fill="none" stroke="#000000" d="M313.1165,-253.8016C319.783,-243.5272 326.283,-229.9022 325.6168,-216.5"/>
<path fill="none" stroke="#000000" d="M325.6168,-216.5C324.6919,-197.8899 308.8389,-184.4354 292.9035,-175.5507"/>
<polygon fill="#000000" stroke="#000000" points="294.1252,-172.246 283.6237,-170.8432 290.9584,-178.4887 294.1252,-172.246"/>
</g>
<!-- src_navegation -->
<g id="node8" class="node">
<title>src_navegation</title>
<ellipse fill="#9d4343" stroke="#000000" cx="292.6168" cy="-18" rx="47.1863" ry="18"/>
<text text-anchor="middle" x="292.6168" y="-15.5" font-family="Helvetica,sans-Serif" font-size="10.00" fill="#ffffff">src.navegation</text>
</g>
<!-- definitions&#45;&gt;src_navegation -->
<g id="edge13" class="edge">
<title>definitions&#45;&gt;src_navegation</title>
<path fill="none" stroke="#000000" d="M325.6168,-162C318.7934,-130.7359 336.4056,-120.1265 325.6168,-90"/>
<path fill="none" stroke="#000000" d="M325.6168,-90C320.1331,-74.6871 312.6714,-58.1529 306.2304,-44.7955"/>
<polygon fill="#000000" stroke="#000000" points="309.3113,-43.1289 301.7637,-35.6936 303.0272,-46.2128 309.3113,-43.1289"/>
</g>
<!-- src_actions&#45;&gt;src_navegation -->
<g id="edge11" class="edge">
<title>src_actions&#45;&gt;src_navegation</title>
<path fill="none" stroke="#000000" d="M267.7742,-72.2022C271.5026,-64.0675 276.0022,-54.2501 280.1419,-45.2181"/>
<polygon fill="#000000" stroke="#000000" points="283.4541,-46.3915 284.439,-35.8425 277.0907,-43.4749 283.4541,-46.3915"/>
</g>
<!-- src_api&#45;&gt;src_actions -->
<g id="edge2" class="edge">
<title>src_api&#45;&gt;src_actions</title>
<path fill="none" stroke="#000000" d="M259.6168,-143.8314C259.6168,-136.131 259.6168,-126.9743 259.6168,-118.4166"/>
<polygon fill="#000000" stroke="#000000" points="263.1169,-118.4132 259.6168,-108.4133 256.1169,-118.4133 263.1169,-118.4132"/>
</g>
<!-- src_util -->
<g id="node4" class="node">
<title>src_util</title>
<ellipse fill="#db2f2f" stroke="#000000" cx="197.6168" cy="-415" rx="27.1572" ry="18"/>
<text text-anchor="middle" x="197.6168" y="-412.5" font-family="Helvetica,sans-Serif" font-size="10.00" fill="#ffffff">src.util</text>
</g>
<!-- src_util&#45;&gt;definitions -->
<g id="edge16" class="edge">
<title>src_util&#45;&gt;definitions</title>
<path fill="none" stroke="#000000" d="M197.6168,-343C194.9805,-326.3135 233.3704,-303.2539 263.8033,-287.7686"/>
<polygon fill="#000000" stroke="#000000" points="265.5458,-290.8109 272.9383,-283.2214 262.4264,-284.5443 265.5458,-290.8109"/>
</g>
<!-- src_util&#45;&gt;src_actions -->
<g id="edge3" class="edge">
<title>src_util&#45;&gt;src_actions</title>
<path fill="none" stroke="#000000" d="M199.1764,-396.8279C200.0587,-382.1961 200.4844,-361.1499 197.6168,-343"/>
<path fill="none" stroke="#000000" d="M197.6168,-343C183.8501,-255.8645 59.8378,-359.3538 6.6168,-289 -3.0359,-276.2398 -1.0431,-267.0472 6.6168,-253 51.5202,-170.6544 157.8461,-123.6463 217.3777,-102.9061"/>
<polygon fill="#000000" stroke="#000000" points="218.5222,-106.2138 226.8664,-99.6849 216.272,-99.5854 218.5222,-106.2138"/>
</g>
<!-- src_util&#45;&gt;src_api -->
<g id="edge5" class="edge">
<title>src_util&#45;&gt;src_api</title>
<path fill="none" stroke="#000000" d="M197.6168,-343C191.9702,-307.26 230.962,-306.8827 235.6168,-271"/>
<path fill="none" stroke="#000000" d="M235.6168,-271C238.7329,-246.9791 219.62,-234.6884 235.6168,-216.5"/>
</g>
<!-- requests -->
<g id="node5" class="node">
<title>requests</title>
<ellipse fill="#a6c040" stroke="#000000" cx="47.6168" cy="-271" rx="31.577" ry="18"/>
<text text-anchor="middle" x="47.6168" y="-268.5" font-family="Helvetica,sans-Serif" font-size="10.00" fill="#000000">requests</text>
</g>
<!-- requests&#45;&gt;src_api -->
<g id="edge8" class="edge">
<title>requests&#45;&gt;src_api</title>
<path fill="none" stroke="#000000" d="M75.7917,-262.2765C85.5419,-259.2917 96.548,-255.9601 106.6168,-253 163.7819,-236.1945 196.2664,-261.2416 235.6168,-216.5"/>
<path fill="none" stroke="#000000" d="M235.6168,-216.5C242.4361,-208.7465 247.5875,-198.7475 251.3344,-189.4354"/>
<polygon fill="#000000" stroke="#000000" points="254.7321,-190.3331 254.8614,-179.739 248.1538,-187.9402 254.7321,-190.3331"/>
</g>
<!-- requests&#45;&gt;requests -->
<g id="edge4" class="edge">
<title>requests&#45;&gt;requests</title>
<path fill="none" stroke="#000000" d="M74.2526,-280.9248C86.6088,-282.0075 97.4046,-278.6992 97.4046,-271 97.4046,-265.5263 91.9481,-262.272 84.3535,-261.237"/>
<polygon fill="#000000" stroke="#000000" points="84.3074,-257.7359 74.2526,-261.0752 84.1952,-264.735 84.3074,-257.7359"/>
</g>
<!-- simplejson -->
<g id="node6" class="node">
<title>simplejson</title>
<ellipse fill="#4073c0" stroke="#000000" cx="152.6168" cy="-271" rx="37.1717" ry="18"/>
<text text-anchor="middle" x="152.6168" y="-268.5" font-family="Helvetica,sans-Serif" font-size="10.00" fill="#ffffff">simplejson</text>
</g>
<!-- simplejson&#45;&gt;src_api -->
<g id="edge6" class="edge">
<title>simplejson&#45;&gt;src_api</title>
<path fill="none" stroke="#000000" d="M179.2496,-258.3227C197.0146,-248.8047 219.9061,-234.3632 235.6168,-216.5"/>
</g>
<!-- simplejson&#45;&gt;simplejson -->
<g id="edge10" class="edge">
<title>simplejson&#45;&gt;simplejson</title>
<path fill="none" stroke="#000000" d="M183.485,-281.0206C196.5621,-281.7757 207.7026,-278.4355 207.7026,-271 207.7026,-265.5976 201.8216,-262.3571 193.5897,-261.2786"/>
<polygon fill="#000000" stroke="#000000" points="193.5842,-257.777 183.485,-260.9794 193.377,-264.7739 193.5842,-257.777"/>
</g>
<!-- src_terminal -->
<g id="node7" class="node">
<title>src_terminal</title>
<ellipse fill="#d92626" stroke="#000000" cx="322.6168" cy="-415" rx="40.0582" ry="18"/>
<text text-anchor="middle" x="322.6168" y="-412.5" font-family="Helvetica,sans-Serif" font-size="10.00" fill="#ffffff">src.terminal</text>
</g>
<!-- src_terminal&#45;&gt;definitions -->
<g id="edge17" class="edge">
<title>src_terminal&#45;&gt;definitions</title>
<path fill="none" stroke="#000000" d="M338.2431,-398.1619C349.3845,-384.4443 362.5732,-363.9756 363.6168,-343"/>
<path fill="none" stroke="#000000" d="M363.6168,-343C364.6855,-321.5213 348.5338,-303.4544 332.1913,-290.7909"/>
<polygon fill="#000000" stroke="#000000" points="333.8742,-287.689 323.718,-284.6718 329.7759,-293.3639 333.8742,-287.689"/>
</g>
<!-- src_terminal&#45;&gt;src_api -->
<g id="edge9" class="edge">
<title>src_terminal&#45;&gt;src_api</title>
<path fill="none" stroke="#000000" d="M300.839,-399.7083C288.3546,-389.927 273.2912,-376.24 263.6168,-361 241.1658,-325.6331 230.2277,-312.543 235.6168,-271"/>
</g>
<!-- src_terminal&#45;&gt;src_navegation -->
<g id="edge12" class="edge">
<title>src_terminal&#45;&gt;src_navegation</title>
<path fill="none" stroke="#000000" d="M363.6168,-343C369.2671,-229.4348 363.9524,-197.0485 325.6168,-90"/>
</g>
<!-- enum -->
<g id="node9" class="node">
<title>enum</title>
<ellipse fill="#53b67b" stroke="#000000" cx="322.6168" cy="-524" rx="27" ry="18"/>
<text text-anchor="middle" x="322.6168" y="-521.5" font-family="Helvetica,sans-Serif" font-size="10.00" fill="#000000">enum</text>
</g>
<!-- enum&#45;&gt;src_terminal -->
<g id="edge14" class="edge">
<title>enum&#45;&gt;src_terminal</title>
<path fill="none" stroke="#000000" d="M322.6168,-505.5096C322.6168,-488.4952 322.6168,-463.0055 322.6168,-443.4076"/>
<polygon fill="#000000" stroke="#000000" points="326.1169,-443.2173 322.6168,-433.2173 319.1169,-443.2173 326.1169,-443.2173"/>
</g>
<!-- src -->
<g id="node10" class="node">
<title>src</title>
<ellipse fill="#e72222" stroke="#000000" cx="299.6168" cy="-343" rx="27" ry="18"/>
<text text-anchor="middle" x="299.6168" y="-340.5" font-family="Helvetica,sans-Serif" font-size="10.00" fill="#ffffff">src</text>
</g>
<!-- src&#45;&gt;definitions -->
<g id="edge15" class="edge">
<title>src&#45;&gt;definitions</title>
<path fill="none" stroke="#000000" d="M299.6168,-324.8314C299.6168,-317.131 299.6168,-307.9743 299.6168,-299.4166"/>
<polygon fill="#000000" stroke="#000000" points="303.1169,-299.4132 299.6168,-289.4133 296.1169,-299.4133 303.1169,-299.4132"/>
</g>
</g>
</svg>
