<?xml version="1.0" encoding="UTF-8" standalone="no"?>
<!DOCTYPE svg PUBLIC "-//W3C//DTD SVG 1.1//EN"
 "http://www.w3.org/Graphics/SVG/1.1/DTD/svg11.dtd">
<!-- Generated by graphviz version 2.40.1 (20161225.0304)
 -->
<!-- Title: G Pages: 1 -->
<svg width="90pt" height="116pt"
 viewBox="0.00 0.00 89.58 116.00" xmlns="http://www.w3.org/2000/svg" xmlns:xlink="http://www.w3.org/1999/xlink">
<g id="graph0" class="graph" transform="scale(1 1) rotate(0) translate(4 112)">
<title>G</title>
<polygon fill="#ffffff" stroke="transparent" points="-4,4 -4,-112 85.5756,-112 85.5756,4 -4,4"/>
<!-- requests -->
<g id="node1" class="node">
<title>requests</title>
<ellipse fill="#c04040" stroke="#000000" cx="31.7878" cy="-90" rx="31.577" ry="18"/>
<text text-anchor="middle" x="31.7878" y="-87.5" font-family="Helvetica,sans-Serif" font-size="10.00" fill="#ffffff">requests</text>
</g>
<!-- requests&#45;&gt;requests -->
<g id="edge2" class="edge">
<title>requests&#45;&gt;requests</title>
<path fill="none" stroke="#000000" d="M54.5757,-102.6027C68.4474,-105.5212 81.5756,-101.3203 81.5756,-90 81.5756,-81.5098 74.191,-77.0242 64.6466,-76.5433"/>
<polygon fill="#000000" stroke="#000000" points="64.2442,-73.0648 54.5757,-77.3973 64.8357,-80.0397 64.2442,-73.0648"/>
</g>
<!-- old_osif -->
<g id="node2" class="node">
<title>old_osif</title>
<ellipse fill="#4cb3b3" stroke="#000000" cx="31.7878" cy="-18" rx="29.3664" ry="18"/>
<text text-anchor="middle" x="31.7878" y="-15.5" font-family="Helvetica,sans-Serif" font-size="10.00" fill="#000000">old_osif</text>
</g>
<!-- requests&#45;&gt;old_osif -->
<g id="edge1" class="edge">
<title>requests&#45;&gt;old_osif</title>
<path fill="none" stroke="#000000" d="M31.7878,-71.8314C31.7878,-64.131 31.7878,-54.9743 31.7878,-46.4166"/>
<polygon fill="#000000" stroke="#000000" points="35.2879,-46.4132 31.7878,-36.4133 28.2879,-46.4133 35.2879,-46.4132"/>
</g>
</g>
</svg>
