<?xml version="1.0" encoding="UTF-8" standalone="no"?>
<!DOCTYPE svg PUBLIC "-//W3C//DTD SVG 1.1//EN"
 "http://www.w3.org/Graphics/SVG/1.1/DTD/svg11.dtd">
<!-- Generated by graphviz version 2.40.1 (20161225.0304)
 -->
<!-- Title: G Pages: 1 -->
<svg width="144pt" height="334pt"
 viewBox="0.00 0.00 143.82 334.00" xmlns="http://www.w3.org/2000/svg" xmlns:xlink="http://www.w3.org/1999/xlink">
<g id="graph0" class="graph" transform="scale(1 1) rotate(0) translate(4 330)">
<title>G</title>
<polygon fill="#ffffff" stroke="transparent" points="-4,4 -4,-330 139.823,-330 139.823,4 -4,4"/>
<!-- definitions -->
<g id="node1" class="node">
<title>definitions</title>
<ellipse fill="#c04040" stroke="#000000" cx="43.6645" cy="-236" rx="35.8171" ry="18"/>
<text text-anchor="middle" x="43.6645" y="-233.5" font-family="Helvetica,sans-Serif" font-size="10.00" fill="#ffffff">definitions</text>
</g>
<!-- osif -->
<g id="node2" class="node">
<title>osif</title>
<ellipse fill="#46a446" stroke="#000000" cx="75.6645" cy="-18" rx="27" ry="18"/>
<text text-anchor="middle" x="75.6645" y="-15.5" font-family="Helvetica,sans-Serif" font-size="10.00" fill="#ffffff">osif</text>
</g>
<!-- definitions&#45;&gt;osif -->
<g id="edge1" class="edge">
<title>definitions&#45;&gt;osif</title>
<path fill="none" stroke="#000000" d="M23.0401,-220.7691C12.2566,-210.969 1.1761,-197.1595 .6645,-181.5"/>
<path fill="none" stroke="#000000" d="M.6645,-181.5C-.4232,-148.2074 .1818,-136.0186 19.6645,-109 37.0407,-84.9026 75.6645,-102.2089 75.6645,-72.5"/>
<path fill="none" stroke="#000000" d="M75.6645,-72.5C75.3785,-63.9892 75.2936,-54.7265 75.3038,-46.2926"/>
<polygon fill="#000000" stroke="#000000" points="78.8043,-46.1909 75.3595,-36.1718 71.8044,-46.1523 78.8043,-46.1909"/>
</g>
<!-- src_navegation -->
<g id="node3" class="node">
<title>src_navegation</title>
<ellipse fill="#4949ac" stroke="#000000" cx="75.6645" cy="-127" rx="47.1863" ry="18"/>
<text text-anchor="middle" x="75.6645" y="-124.5" font-family="Helvetica,sans-Serif" font-size="10.00" fill="#ffffff">src.navegation</text>
</g>
<!-- definitions&#45;&gt;src_navegation -->
<g id="edge4" class="edge">
<title>definitions&#45;&gt;src_navegation</title>
<path fill="none" stroke="#000000" d="M.6645,-181.5C.0934,-164.018 13.5221,-151.5573 29.1678,-143.005"/>
<polygon fill="#000000" stroke="#000000" points="31.1047,-145.9538 38.5468,-138.4129 28.0264,-139.6669 31.1047,-145.9538"/>
</g>
<!-- src_navegation&#45;&gt;osif -->
<g id="edge2" class="edge">
<title>src_navegation&#45;&gt;osif</title>
<path fill="none" stroke="#000000" d="M75.6645,-108.8333C75.6645,-98.2361 75.6645,-84.6111 75.6645,-72.5"/>
</g>
<!-- src -->
<g id="node4" class="node">
<title>src</title>
<ellipse fill="#3b3bce" stroke="#000000" cx="75.6645" cy="-308" rx="27" ry="18"/>
<text text-anchor="middle" x="75.6645" y="-305.5" font-family="Helvetica,sans-Serif" font-size="10.00" fill="#ffffff">src</text>
</g>
<!-- src&#45;&gt;definitions -->
<g id="edge5" class="edge">
<title>src&#45;&gt;definitions</title>
<path fill="none" stroke="#000000" d="M67.9182,-290.5708C64.239,-282.2927 59.758,-272.2104 55.6535,-262.9752"/>
<polygon fill="#000000" stroke="#000000" points="58.8216,-261.4855 51.5618,-253.7689 52.4249,-264.3285 58.8216,-261.4855"/>
</g>
<!-- src&#45;&gt;osif -->
<g id="edge3" class="edge">
<title>src&#45;&gt;osif</title>
<path fill="none" stroke="#000000" d="M83.8796,-290.4165C97.0893,-261.0673 122.4976,-199.895 131.6645,-145 134.2998,-129.2185 139.2873,-123.0674 131.6645,-109 117.5105,-82.8795 76.6622,-102.1921 75.6645,-72.5"/>
</g>
</g>
</svg>
