<?xml version="1.0" encoding="UTF-8" standalone="no"?>
<!DOCTYPE svg PUBLIC "-//W3C//DTD SVG 1.1//EN"
 "http://www.w3.org/Graphics/SVG/1.1/DTD/svg11.dtd">
<!-- Generated by graphviz version 2.40.1 (20161225.0304)
 -->
<!-- Title: G Pages: 1 -->
<svg width="148pt" height="369pt"
 viewBox="0.00 0.00 148.10 369.00" xmlns="http://www.w3.org/2000/svg" xmlns:xlink="http://www.w3.org/1999/xlink">
<g id="graph0" class="graph" transform="scale(1 1) rotate(0) translate(4 365)">
<title>G</title>
<polygon fill="#ffffff" stroke="transparent" points="-4,4 -4,-365 144.1035,-365 144.1035,4 -4,4"/>
<!-- definitions -->
<g id="node1" class="node">
<title>definitions</title>
<ellipse fill="#b83d3d" stroke="#000000" cx="104.1951" cy="-199" rx="35.8171" ry="18"/>
<text text-anchor="middle" x="104.1951" y="-196.5" font-family="Helvetica,sans-Serif" font-size="10.00" fill="#ffffff">definitions</text>
</g>
<!-- src_actions -->
<g id="node2" class="node">
<title>src_actions</title>
<ellipse fill="#439d9d" stroke="#000000" cx="40.1951" cy="-18" rx="38.0276" ry="18"/>
<text text-anchor="middle" x="40.1951" y="-15.5" font-family="Helvetica,sans-Serif" font-size="10.00" fill="#000000">src.actions</text>
</g>
<!-- definitions&#45;&gt;src_actions -->
<g id="edge1" class="edge">
<title>definitions&#45;&gt;src_actions</title>
<path fill="none" stroke="#000000" d="M95.1951,-144.5C84.8596,-112.8336 89.8432,-102.386 76.1951,-72 71.7632,-62.133 65.5928,-52.0724 59.6109,-43.3511"/>
<polygon fill="#000000" stroke="#000000" points="62.4127,-41.2516 53.7632,-35.133 56.7091,-45.31 62.4127,-41.2516"/>
</g>
<!-- src_api -->
<g id="node3" class="node">
<title>src_api</title>
<ellipse fill="#46a4a4" stroke="#000000" cx="40.1951" cy="-90" rx="27.1572" ry="18"/>
<text text-anchor="middle" x="40.1951" y="-87.5" font-family="Helvetica,sans-Serif" font-size="10.00" fill="#000000">src.api</text>
</g>
<!-- definitions&#45;&gt;src_api -->
<g id="edge5" class="edge">
<title>definitions&#45;&gt;src_api</title>
<path fill="none" stroke="#000000" d="M102.6118,-181.0017C101.3237,-170.2206 99.0633,-156.3516 95.1951,-144.5"/>
<path fill="none" stroke="#000000" d="M95.1951,-144.5C90.4963,-130.1036 79.282,-117.8236 68.1965,-108.5852"/>
<polygon fill="#000000" stroke="#000000" points="70.2875,-105.7776 60.2424,-102.4091 65.9944,-111.3066 70.2875,-105.7776"/>
</g>
<!-- src_api&#45;&gt;src_actions -->
<g id="edge2" class="edge">
<title>src_api&#45;&gt;src_actions</title>
<path fill="none" stroke="#000000" d="M40.1951,-71.8314C40.1951,-64.131 40.1951,-54.9743 40.1951,-46.4166"/>
<polygon fill="#000000" stroke="#000000" points="43.6952,-46.4132 40.1951,-36.4133 36.6952,-46.4133 43.6952,-46.4132"/>
</g>
<!-- src_util -->
<g id="node4" class="node">
<title>src_util</title>
<ellipse fill="#3bcece" stroke="#000000" cx="95.1951" cy="-343" rx="27.1572" ry="18"/>
<text text-anchor="middle" x="95.1951" y="-340.5" font-family="Helvetica,sans-Serif" font-size="10.00" fill="#000000">src.util</text>
</g>
<!-- src_util&#45;&gt;definitions -->
<g id="edge7" class="edge">
<title>src_util&#45;&gt;definitions</title>
<path fill="none" stroke="#000000" d="M109.318,-327.2844C117.4486,-317.1468 126.8852,-303.2347 131.1951,-289 135.8316,-273.6865 134.8711,-268.572 131.1951,-253 128.9314,-243.4109 124.6898,-233.5831 120.228,-224.9849"/>
<polygon fill="#000000" stroke="#000000" points="123.2797,-223.2707 115.3833,-216.2069 117.1511,-226.6532 123.2797,-223.2707"/>
</g>
<!-- src_util&#45;&gt;src_actions -->
<g id="edge3" class="edge">
<title>src_util&#45;&gt;src_actions</title>
<path fill="none" stroke="#000000" d="M81.7202,-327.0649C73.8335,-316.8446 64.4257,-302.9228 59.1951,-289 36.4147,-228.3629 55.1928,-207.5149 40.1951,-144.5"/>
<path fill="none" stroke="#000000" d="M40.1951,-144.5C33.7128,-122.6564 12.8419,-129.0806 4.1951,-108 -1.8768,-93.1969 -.4414,-87.3135 4.1951,-72 7.3296,-61.6475 13.1757,-51.4656 19.259,-42.7822"/>
<polygon fill="#000000" stroke="#000000" points="22.1538,-44.7551 25.3296,-34.6475 16.5437,-40.5685 22.1538,-44.7551"/>
</g>
<!-- src_util&#45;&gt;src_api -->
<g id="edge4" class="edge">
<title>src_util&#45;&gt;src_api</title>
<path fill="none" stroke="#000000" d="M40.1951,-144.5C38.2234,-136.2158 37.6381,-127.0204 37.708,-118.5784"/>
<polygon fill="#000000" stroke="#000000" points="41.2119,-118.5385 38.092,-108.4135 34.2169,-118.2742 41.2119,-118.5385"/>
</g>
<!-- src -->
<g id="node5" class="node">
<title>src</title>
<ellipse fill="#2fdbdb" stroke="#000000" cx="95.1951" cy="-271" rx="27" ry="18"/>
<text text-anchor="middle" x="95.1951" y="-268.5" font-family="Helvetica,sans-Serif" font-size="10.00" fill="#000000">src</text>
</g>
<!-- src&#45;&gt;definitions -->
<g id="edge6" class="edge">
<title>src&#45;&gt;definitions</title>
<path fill="none" stroke="#000000" d="M97.4662,-252.8314C98.4287,-245.131 99.5733,-235.9743 100.643,-227.4166"/>
<polygon fill="#000000" stroke="#000000" points="104.126,-227.7702 101.8934,-217.4133 97.18,-226.9019 104.126,-227.7702"/>
</g>
</g>
</svg>
